<svg width="44" height="44" viewBox="0 0 44 44" fill="none" xmlns="http://www.w3.org/2000/svg">
<rect x="1.25" y="1.25" width="41.5" height="41.5" rx="10.75" fill="#F8F9FC" stroke="#D9E3EE" stroke-width="1.5"/>
<path d="M28 22.75H16C15.59 22.75 15.25 22.41 15.25 22C15.25 21.59 15.59 21.25 16 21.25H28C28.41 21.25 28.75 21.59 28.75 22C28.75 22.41 28.41 22.75 28 22.75Z" fill="#4C4661"/>
<path d="M22 28.75C21.59 28.75 21.25 28.41 21.25 28V16C21.25 15.59 21.59 15.25 22 15.25C22.41 15.25 22.75 15.59 22.75 16V28C22.75 28.41 22.41 28.75 22 28.75Z" fill="#4C4661"/>
</svg>
