<svg width="23" height="23" viewBox="0 0 23 23" fill="none" xmlns="http://www.w3.org/2000/svg">
<circle cx="11.5" cy="11.5" r="11.5" fill="#0E9015"/>
<path d="M14.1115 16.651C13.57 16.651 12.9998 16.5217 12.4104 16.2725C11.8354 16.0281 11.2556 15.6927 10.6902 15.2854C10.1296 14.8733 9.58813 14.4133 9.07542 13.9102C8.5675 13.3975 8.1075 12.856 7.70021 12.3002C7.28813 11.7252 6.9575 11.1502 6.72271 10.5944C6.47354 10.0002 6.34896 9.4252 6.34896 8.88374C6.34896 8.50999 6.41604 8.15541 6.54542 7.82479C6.67959 7.48458 6.89521 7.16833 7.1875 6.8952C7.55646 6.53104 7.97813 6.34895 8.42854 6.34895C8.61542 6.34895 8.80709 6.39208 8.97 6.46874C9.15688 6.55499 9.315 6.68437 9.43 6.85687L10.5417 8.42374C10.6423 8.5627 10.719 8.69687 10.7717 8.83104C10.834 8.97479 10.8675 9.11854 10.8675 9.2575C10.8675 9.43958 10.8148 9.61687 10.7142 9.78458C10.6423 9.91395 10.5321 10.0529 10.3931 10.1919L10.0673 10.5321C10.0721 10.5465 10.0769 10.556 10.0817 10.5656C10.1392 10.6662 10.2542 10.8387 10.4746 11.0975C10.7094 11.3658 10.9298 11.6102 11.1502 11.8354C11.4329 12.1133 11.6677 12.3337 11.8881 12.5158C12.1613 12.7458 12.3385 12.8608 12.444 12.9135L12.4344 12.9375L12.7842 12.5925C12.9327 12.444 13.0765 12.3337 13.2154 12.2619C13.479 12.099 13.8144 12.0702 14.1498 12.2092C14.2744 12.2619 14.4085 12.3337 14.5523 12.4344L16.1431 13.5652C16.3204 13.685 16.4498 13.8383 16.5265 14.0204C16.5983 14.2025 16.6319 14.3702 16.6319 14.5379C16.6319 14.7679 16.5792 14.9979 16.4785 15.2135C16.3779 15.4292 16.2533 15.616 16.0952 15.7885C15.8221 16.0904 15.525 16.306 15.18 16.445C14.8494 16.5792 14.49 16.651 14.1115 16.651ZM8.42854 7.0677C8.165 7.0677 7.92063 7.1827 7.68584 7.4127C7.46542 7.61874 7.31209 7.84395 7.21625 8.08833C7.11563 8.3375 7.06771 8.60104 7.06771 8.88374C7.06771 9.32937 7.17313 9.81333 7.38396 10.3117C7.59959 10.8196 7.90146 11.3467 8.28479 11.8737C8.66813 12.4008 9.10417 12.9135 9.58334 13.3975C10.0625 13.8719 10.58 14.3127 11.1119 14.7008C11.6294 15.0794 12.1613 15.386 12.6883 15.6065C13.5077 15.9562 14.2744 16.0377 14.9069 15.7742C15.1513 15.6735 15.3669 15.5202 15.5633 15.2998C15.6735 15.18 15.7598 15.0506 15.8317 14.8973C15.8892 14.7775 15.9179 14.6529 15.9179 14.5283C15.9179 14.4517 15.9035 14.375 15.8652 14.2887C15.8508 14.26 15.8221 14.2073 15.731 14.145L14.1402 13.0142C14.0444 12.9471 13.9581 12.8992 13.8767 12.8656C13.7713 12.8225 13.7281 12.7794 13.5652 12.88C13.4694 12.9279 13.3831 12.9998 13.2873 13.0956L12.9231 13.455C12.7363 13.6371 12.4488 13.6802 12.2283 13.5987L12.099 13.5412C11.9025 13.4358 11.6725 13.2729 11.4185 13.0573C11.1885 12.8608 10.9394 12.6308 10.6375 12.3337C10.4027 12.0942 10.1679 11.8402 9.92354 11.5575C9.69834 11.294 9.53542 11.0687 9.43479 10.8819L9.37729 10.7381C9.34854 10.6279 9.33896 10.5656 9.33896 10.4985C9.33896 10.326 9.40125 10.1727 9.52104 10.0529L9.88042 9.67916C9.97625 9.58333 10.0481 9.49229 10.096 9.41083C10.1344 9.34854 10.1488 9.29583 10.1488 9.24791C10.1488 9.20958 10.1344 9.15208 10.1104 9.09458C10.0769 9.01791 10.0242 8.93166 9.95709 8.84062L8.84542 7.26895C8.7975 7.20187 8.74 7.15395 8.66813 7.12041C8.59146 7.08687 8.51 7.0677 8.42854 7.0677ZM12.4344 12.9423L12.3577 13.2681L12.4871 12.9327C12.4631 12.9279 12.444 12.9327 12.4344 12.9423Z" fill="white"/>
</svg>
