<svg width="20" height="20" viewBox="0 0 20 20" fill="none" xmlns="http://www.w3.org/2000/svg">
<path d="M12.5 18.9584H7.50001C2.97501 18.9584 1.04167 17.025 1.04167 12.5V7.50002C1.04167 2.97502 2.97501 1.04169 7.50001 1.04169H12.5C17.025 1.04169 18.9583 2.97502 18.9583 7.50002V12.5C18.9583 17.025 17.025 18.9584 12.5 18.9584ZM7.50001 2.29169C3.65834 2.29169 2.29167 3.65835 2.29167 7.50002V12.5C2.29167 16.3417 3.65834 17.7084 7.50001 17.7084H12.5C16.3417 17.7084 17.7083 16.3417 17.7083 12.5V7.50002C17.7083 3.65835 16.3417 2.29169 12.5 2.29169H7.50001Z" fill="#A5B7C7"/>
</svg>
