<svg width="10" height="10" viewBox="0 0 10 10" fill="none" xmlns="http://www.w3.org/2000/svg">
<path d="M8.75003 2.80417C8.74169 2.80417 8.72919 2.80417 8.71669 2.80417C6.51253 2.58333 4.31253 2.5 2.13336 2.72083L1.28336 2.80417C1.10836 2.82083 0.954193 2.69583 0.937526 2.52083C0.920859 2.34583 1.04586 2.19583 1.21669 2.17917L2.06669 2.09583C4.28336 1.87083 6.52919 1.95833 8.77919 2.17917C8.95003 2.19583 9.07503 2.35 9.05836 2.52083C9.04586 2.68333 8.90836 2.80417 8.75003 2.80417Z" fill="#91A6BA"/>
<path d="M3.54157 2.38333C3.5249 2.38333 3.50824 2.38333 3.4874 2.37916C3.32074 2.35 3.20407 2.1875 3.23324 2.02083L3.3249 1.475C3.39157 1.07499 3.48324 0.520828 4.45407 0.520828H5.54574C6.52074 0.520828 6.6124 1.09583 6.6749 1.47916L6.76657 2.02083C6.79574 2.19166 6.67907 2.35416 6.5124 2.37916C6.34157 2.40833 6.17907 2.29166 6.15407 2.125L6.0624 1.58333C6.00407 1.22083 5.99157 1.14999 5.5499 1.14999H4.45824C4.01657 1.14999 4.00824 1.20833 3.94574 1.57916L3.8499 2.12083C3.8249 2.275 3.69157 2.38333 3.54157 2.38333Z" fill="#91A6BA"/>
<path d="M6.3375 9.47917H3.6625C2.20833 9.47917 2.15 8.675 2.10417 8.025L1.83333 3.82917C1.82083 3.65833 1.95417 3.50833 2.125 3.49583C2.3 3.4875 2.44583 3.61667 2.45833 3.7875L2.72917 7.98333C2.775 8.61667 2.79167 8.85417 3.6625 8.85417H6.3375C7.2125 8.85417 7.22917 8.61667 7.27083 7.98333L7.54167 3.7875C7.55417 3.61667 7.70416 3.4875 7.875 3.49583C8.04583 3.50833 8.17917 3.65417 8.16667 3.82917L7.89583 8.025C7.85 8.675 7.79167 9.47917 6.3375 9.47917Z" fill="#91A6BA"/>
<path d="M5.6917 7.1875H4.3042C4.13337 7.1875 3.9917 7.04583 3.9917 6.875C3.9917 6.70417 4.13337 6.5625 4.3042 6.5625H5.6917C5.86253 6.5625 6.0042 6.70417 6.0042 6.875C6.0042 7.04583 5.86253 7.1875 5.6917 7.1875Z" fill="#91A6BA"/>
<path d="M6.04159 5.52083H3.95825C3.78742 5.52083 3.64575 5.37916 3.64575 5.20833C3.64575 5.03749 3.78742 4.89583 3.95825 4.89583H6.04159C6.21242 4.89583 6.35409 5.03749 6.35409 5.20833C6.35409 5.37916 6.21242 5.52083 6.04159 5.52083Z" fill="#91A6BA"/>
</svg>
