<svg width="19" height="19" viewBox="0 0 19 19" fill="none" xmlns="http://www.w3.org/2000/svg">
<path d="M4.38582 15.4533C3.90291 15.4533 3.45166 15.2871 3.12707 14.9783C2.71541 14.5904 2.51749 14.0046 2.58874 13.3712L2.88166 10.8062C2.93707 10.3233 3.22999 9.68208 3.57041 9.33375L10.07 2.45416C11.6929 0.736248 13.3871 0.688748 15.105 2.31166C16.8229 3.93458 16.8704 5.62875 15.2475 7.34666L8.74791 14.2262C8.41541 14.5825 7.79791 14.915 7.31499 14.9942L4.76582 15.4296C4.63124 15.4375 4.51249 15.4533 4.38582 15.4533ZM12.6112 2.30375C12.0017 2.30375 11.4712 2.68375 10.9329 3.25375L4.43332 10.1412C4.27499 10.3075 4.09291 10.7033 4.06124 10.9329L3.76832 13.4979C3.73666 13.7592 3.79999 13.9729 3.94249 14.1075C4.08499 14.2421 4.29874 14.2896 4.55999 14.25L7.10916 13.8146C7.33874 13.775 7.71874 13.5692 7.87707 13.4029L14.3767 6.52333C15.3583 5.47833 15.7146 4.5125 14.2817 3.16666C13.6483 2.55708 13.1021 2.30375 12.6112 2.30375Z" fill="#A5B7C7"/>
<path d="M13.7275 8.66875C13.7117 8.66875 13.6879 8.66875 13.6721 8.66875C11.2021 8.42333 9.21499 6.54708 8.83499 4.09292C8.78749 3.76833 9.00916 3.4675 9.33374 3.41208C9.65832 3.36458 9.95916 3.58625 10.0146 3.91083C10.3154 5.82667 11.8671 7.29917 13.7987 7.48917C14.1233 7.52083 14.3608 7.81375 14.3292 8.13833C14.2896 8.43917 14.0283 8.66875 13.7275 8.66875Z" fill="#A5B7C7"/>
<path d="M16.625 18.0104H2.375C2.05042 18.0104 1.78125 17.7412 1.78125 17.4167C1.78125 17.0921 2.05042 16.8229 2.375 16.8229H16.625C16.9496 16.8229 17.2188 17.0921 17.2188 17.4167C17.2188 17.7412 16.9496 18.0104 16.625 18.0104Z" fill="#A5B7C7"/>
</svg>
