<svg width="33" height="33" viewBox="0 0 33 33" fill="none" xmlns="http://www.w3.org/2000/svg">
<circle cx="16.5" cy="16.5" r="16.5" fill="#F8F7FF"/>
<path fill-rule="evenodd" clip-rule="evenodd" d="M16.3047 17.7816C15.7193 17.7816 15.1357 17.5882 14.6475 17.2015L10.7231 14.0375C10.4405 13.81 10.3967 13.3961 10.6233 13.1144C10.8517 12.8335 11.2647 12.7889 11.5465 13.0155L15.4673 16.176C15.96 16.5662 16.6538 16.5662 17.15 16.1725L21.0315 13.0172C21.3132 12.7871 21.7262 12.8309 21.9555 13.1126C22.1838 13.3935 22.141 13.8065 21.8601 14.0357L17.9716 17.1962C17.4798 17.5865 16.8918 17.7816 16.3047 17.7816Z" fill="#957BF1"/>
<mask id="mask0_229_11388" style="mask-type:alpha" maskUnits="userSpaceOnUse" x="6" y="7" width="20" height="18">
<path fill-rule="evenodd" clip-rule="evenodd" d="M6.87492 7.74994H25.6873V24.8124H6.87492V7.74994Z" fill="white"/>
</mask>
<g mask="url(#mask0_229_11388)">
<path fill-rule="evenodd" clip-rule="evenodd" d="M11.984 23.4999H20.5765C20.5782 23.4982 20.5852 23.4999 20.5905 23.4999C21.5888 23.4999 22.4743 23.1429 23.1533 22.4648C23.9417 21.6799 24.3748 20.5521 24.3748 19.2894V13.2799C24.3748 10.8361 22.7771 9.06244 20.5765 9.06244H11.9857C9.78508 9.06244 8.18733 10.8361 8.18733 13.2799V19.2894C8.18733 20.5521 8.62133 21.6799 9.40883 22.4648C10.0878 23.1429 10.9742 23.4999 11.9717 23.4999H11.984ZM11.9691 24.8124C10.619 24.8124 9.41321 24.3224 8.48221 23.3949C7.44533 22.3607 6.87483 20.9029 6.87483 19.2894V13.2799C6.87483 10.1273 9.07196 7.74994 11.9857 7.74994H20.5765C23.4902 7.74994 25.6873 10.1273 25.6873 13.2799V19.2894C25.6873 20.9029 25.1168 22.3607 24.08 23.3949C23.1498 24.3216 21.9432 24.8124 20.5905 24.8124H20.5765H11.9857H11.9691Z" fill="#957BF1"/>
</g>
</svg>
