<svg width="17" height="17" viewBox="0 0 17 17" fill="none" xmlns="http://www.w3.org/2000/svg">
<path d="M12.0417 15.052H4.95835C2.37294 15.052 0.885437 13.5645 0.885437 10.9791V6.02079C0.885437 3.43538 2.37294 1.94788 4.95835 1.94788H12.0417C14.6271 1.94788 16.1146 3.43538 16.1146 6.02079V10.9791C16.1146 13.5645 14.6271 15.052 12.0417 15.052ZM4.95835 3.01038C2.93252 3.01038 1.94794 3.99496 1.94794 6.02079V10.9791C1.94794 13.005 2.93252 13.9895 4.95835 13.9895H12.0417C14.0675 13.9895 15.0521 13.005 15.0521 10.9791V6.02079C15.0521 3.99496 14.0675 3.01038 12.0417 3.01038H4.95835Z" fill="#A5B7C7"/>
<path d="M8.49982 9.11623C7.90482 9.11623 7.30274 8.93206 6.84232 8.55665L4.62524 6.78581C4.39857 6.60165 4.35607 6.26873 4.54024 6.04206C4.72441 5.81539 5.05733 5.7729 5.28399 5.95706L7.50107 7.7279C8.0394 8.15998 8.95315 8.15998 9.49148 7.7279L11.7086 5.95706C11.9352 5.7729 12.2752 5.80831 12.4523 6.04206C12.6365 6.26873 12.6011 6.60873 12.3673 6.78581L10.1502 8.55665C9.69691 8.93206 9.09482 9.11623 8.49982 9.11623Z" fill="#A5B7C7"/>
</svg>
