<svg width="24" height="24" viewBox="0 0 24 24" fill="none" xmlns="http://www.w3.org/2000/svg">
<mask id="mask0_225_8678" style="mask-type:alpha" maskUnits="userSpaceOnUse" x="1" y="1" width="23" height="22">
<ellipse cx="12.0002" cy="12" rx="11.0002" ry="11" fill="#D9D9D9"/>
</mask>
<g mask="url(#mask0_225_8678)">
<rect width="24.0004" height="24" fill="#F24646"/>
</g>
<path d="M11.4476 6.06C11.6219 5.98324 11.8103 5.94369 12.0008 5.94385C12.1911 5.94389 12.3793 5.98361 12.5534 6.06045C12.7275 6.13729 12.8837 6.24958 13.012 6.39015C13.1403 6.53072 13.2379 6.69649 13.2985 6.87688C13.3592 7.05727 13.3816 7.24832 13.3643 7.43785L12.8183 13.4468C12.797 13.6489 12.7017 13.8359 12.5508 13.9718C12.3998 14.1077 12.2039 14.183 12.0008 14.183C11.7976 14.183 11.6017 14.1077 11.4507 13.9718C11.2998 13.8359 11.2045 13.6489 11.1833 13.4468L10.6358 7.43785C10.6184 7.2482 10.6409 7.05702 10.7016 6.87653C10.7624 6.69603 10.8601 6.53019 10.9885 6.3896C11.117 6.24901 11.2734 6.13675 11.4476 6.06Z" fill="white"/>
<path d="M13.3093 16.7476C13.3093 17.4703 12.7235 18.0561 12.0008 18.0561C11.2782 18.0561 10.6923 17.4703 10.6923 16.7476C10.6923 16.0249 11.2782 15.4391 12.0008 15.4391C12.7235 15.4391 13.3093 16.0249 13.3093 16.7476Z" fill="white"/>
</svg>
