<svg width="19" height="19" viewBox="0 0 19 19" fill="none" xmlns="http://www.w3.org/2000/svg">
<path d="M7.49708 12.0967C7.34667 12.0967 7.19625 12.0412 7.0775 11.9225C6.42833 11.2733 6.07208 10.4104 6.07208 9.5C6.07208 7.60792 7.60792 6.07208 9.5 6.07208C10.4104 6.07208 11.2733 6.42833 11.9225 7.0775C12.0333 7.18833 12.0967 7.33875 12.0967 7.49708C12.0967 7.65542 12.0333 7.80583 11.9225 7.91667L7.91667 11.9225C7.79792 12.0412 7.6475 12.0967 7.49708 12.0967ZM9.5 7.25958C8.265 7.25958 7.25958 8.265 7.25958 9.5C7.25958 9.89583 7.3625 10.2758 7.5525 10.6083L10.6083 7.5525C10.2758 7.3625 9.89583 7.25958 9.5 7.25958Z" fill="#A5B7C7"/>
<path d="M4.43333 14.6538C4.29875 14.6538 4.15625 14.6063 4.04541 14.5113C3.19833 13.7909 2.43833 12.9042 1.78916 11.875C0.949998 10.5688 0.949998 8.43919 1.78916 7.12503C3.72083 4.10086 6.53125 2.35919 9.5 2.35919C11.2417 2.35919 12.9596 2.96086 14.4637 4.09294C14.725 4.29086 14.7804 4.66294 14.5825 4.92419C14.3846 5.18544 14.0125 5.24086 13.7512 5.04294C12.4529 4.06128 10.9804 3.54669 9.5 3.54669C6.94291 3.54669 4.49666 5.08253 2.78666 7.76628C2.19291 8.69253 2.19291 10.3075 2.78666 11.2338C3.38041 12.16 4.06125 12.9596 4.81333 13.6088C5.05875 13.8225 5.09041 14.1946 4.87666 14.4479C4.76583 14.5825 4.59958 14.6538 4.43333 14.6538Z" fill="#A5B7C7"/>
<path d="M9.5 16.6409C8.44708 16.6409 7.41792 16.4271 6.42833 16.0075C6.1275 15.8809 5.985 15.5325 6.11167 15.2317C6.23833 14.9309 6.58667 14.7884 6.8875 14.915C7.72667 15.2713 8.60541 15.4534 9.49208 15.4534C12.0492 15.4534 14.4954 13.9175 16.2054 11.2338C16.7992 10.3075 16.7992 8.69252 16.2054 7.76627C15.96 7.37835 15.6908 7.00627 15.4058 6.65794C15.2 6.4046 15.2396 6.03252 15.4929 5.81877C15.7462 5.61294 16.1183 5.6446 16.3321 5.90585C16.6408 6.28585 16.9417 6.69752 17.2108 7.12502C18.05 8.43127 18.05 10.5609 17.2108 11.875C15.2792 14.8992 12.4687 16.6409 9.5 16.6409Z" fill="#A5B7C7"/>
<path d="M10.0462 12.8804C9.76916 12.8804 9.51583 12.6825 9.46041 12.3975C9.39708 12.0729 9.61083 11.7642 9.93541 11.7088C10.8062 11.5504 11.5346 10.8221 11.6929 9.95128C11.7562 9.6267 12.065 9.42086 12.3896 9.47628C12.7142 9.53961 12.9279 9.84836 12.8646 10.1729C12.6112 11.5425 11.5187 12.6271 10.1571 12.8804C10.1175 12.8725 10.0858 12.8804 10.0462 12.8804Z" fill="#A5B7C7"/>
<path d="M1.58333 18.0104C1.43292 18.0104 1.2825 17.955 1.16375 17.8362C0.934166 17.6067 0.934166 17.2267 1.16375 16.9971L7.0775 11.0833C7.30708 10.8537 7.68708 10.8537 7.91667 11.0833C8.14625 11.3129 8.14625 11.6929 7.91667 11.9225L2.00292 17.8362C1.88417 17.955 1.73375 18.0104 1.58333 18.0104Z" fill="#A5B7C7"/>
<path d="M11.5029 8.09085C11.3525 8.09085 11.2021 8.03543 11.0833 7.91668C10.8538 7.6871 10.8538 7.3071 11.0833 7.07751L16.9971 1.16376C17.2267 0.934181 17.6067 0.934181 17.8363 1.16376C18.0658 1.39335 18.0658 1.77335 17.8363 2.00293L11.9225 7.91668C11.8038 8.03543 11.6533 8.09085 11.5029 8.09085Z" fill="#A5B7C7"/>
</svg>
