<svg width="19" height="19" viewBox="0 0 19 19" fill="none" xmlns="http://www.w3.org/2000/svg">
<path d="M9.50006 12.928C7.60798 12.928 6.07214 11.3921 6.07214 9.50006C6.07214 7.60798 7.60798 6.07214 9.50006 6.07214C11.3921 6.07214 12.928 7.60798 12.928 9.50006C12.928 11.3921 11.3921 12.928 9.50006 12.928ZM9.50006 7.25964C8.26506 7.25964 7.25964 8.26506 7.25964 9.50006C7.25964 10.7351 8.26506 11.7405 9.50006 11.7405C10.7351 11.7405 11.7405 10.7351 11.7405 9.50006C11.7405 8.26506 10.7351 7.25964 9.50006 7.25964Z" fill="#A5B7C7"/>
<path d="M9.49998 16.6408C6.52331 16.6408 3.7129 14.8991 1.78123 11.875C0.942064 10.5687 0.942064 8.43913 1.78123 7.12496C3.72081 4.1008 6.53123 2.35913 9.49998 2.35913C12.4687 2.35913 15.2791 4.1008 17.2108 7.12496C18.05 8.43121 18.05 10.5608 17.2108 11.875C15.2791 14.8991 12.4687 16.6408 9.49998 16.6408ZM9.49998 3.54663C6.9429 3.54663 4.49665 5.08246 2.78665 7.76621C2.1929 8.69246 2.1929 10.3075 2.78665 11.2337C4.49665 13.9175 6.9429 15.4533 9.49998 15.4533C12.0571 15.4533 14.5033 13.9175 16.2133 11.2337C16.8071 10.3075 16.8071 8.69246 16.2133 7.76621C14.5033 5.08246 12.0571 3.54663 9.49998 3.54663Z" fill="#A5B7C7"/>
</svg>
