<svg width="17" height="17" viewBox="0 0 17 17" fill="none" xmlns="http://www.w3.org/2000/svg">
<path fill-rule="evenodd" clip-rule="evenodd" d="M11.987 7.22504C11.6938 7.22504 11.4558 6.98704 11.4558 6.69379V5.173C11.4558 3.68833 10.2481 2.48062 8.76339 2.48062H8.75206C8.03451 2.48062 7.36231 2.75687 6.85443 3.2605C6.34301 3.76625 6.06039 4.44129 6.05756 5.16095V6.69379C6.05756 6.98704 5.81956 7.22504 5.52631 7.22504C5.23306 7.22504 4.99506 6.98704 4.99506 6.69379V5.173C4.99931 4.153 5.39385 3.21162 6.10572 2.50612C6.81831 1.79991 7.75897 1.3912 8.76551 1.41812C10.8338 1.41812 12.5183 3.10254 12.5183 5.173V6.69379C12.5183 6.98704 12.2803 7.22504 11.987 7.22504Z" fill="#A5B7C7"/>
<path fill-rule="evenodd" clip-rule="evenodd" d="M6.05056 7.17456C4.86198 7.17456 3.89581 8.14073 3.89581 9.32931V12.3674C3.89581 13.5559 4.86198 14.5221 6.05056 14.5221H11.4629C12.6508 14.5221 13.6177 13.5559 13.6177 12.3674V9.32931C13.6177 8.14073 12.6508 7.17456 11.4629 7.17456H6.05056ZM11.4629 15.5846H6.05056C4.27619 15.5846 2.83331 14.1417 2.83331 12.3674V9.32931C2.83331 7.55494 4.27619 6.11206 6.05056 6.11206H11.4629C13.2373 6.11206 14.6802 7.55494 14.6802 9.32931V12.3674C14.6802 14.1417 13.2373 15.5846 11.4629 15.5846Z" fill="#A5B7C7"/>
<path fill-rule="evenodd" clip-rule="evenodd" d="M8.75659 12.1661C8.46334 12.1661 8.22534 11.9281 8.22534 11.6349V10.0616C8.22534 9.7684 8.46334 9.5304 8.75659 9.5304C9.04984 9.5304 9.28784 9.7684 9.28784 10.0616V11.6349C9.28784 11.9281 9.04984 12.1661 8.75659 12.1661Z" fill="#A5B7C7"/>
</svg>
