<svg width="17" height="17" viewBox="0 0 17 17" fill="none" xmlns="http://www.w3.org/2000/svg">
<path d="M7.08331 13.4583C7.08331 14.2375 7.72081 14.875 8.49998 14.875C9.27915 14.875 9.91665 14.2375 9.91665 13.4583C9.91665 12.6792 9.27915 12.0417 8.49998 12.0417C7.72081 12.0417 7.08331 12.6792 7.08331 13.4583Z" fill="#A5B7C7"/>
<path d="M7.08331 3.54167C7.08331 4.32084 7.72081 4.95834 8.49998 4.95834C9.27915 4.95834 9.91665 4.32084 9.91665 3.54167C9.91665 2.7625 9.27915 2.125 8.49998 2.125C7.72081 2.125 7.08331 2.7625 7.08331 3.54167Z" fill="#A5B7C7"/>
<path d="M7.08331 8.5C7.08331 9.27916 7.72081 9.91666 8.49998 9.91666C9.27915 9.91666 9.91665 9.27916 9.91665 8.5C9.91665 7.72083 9.27915 7.08333 8.49998 7.08333C7.72081 7.08333 7.08331 7.72083 7.08331 8.5Z" fill="#A5B7C7"/>
</svg>
