<svg width="33" height="33" viewBox="0 0 33 33" fill="none" xmlns="http://www.w3.org/2000/svg">
<circle cx="16.5" cy="16.5" r="16.5" fill="#F8F7FF"/>
<path d="M11.4075 25.9062C11.32 25.9062 11.2237 25.8975 11.145 25.8887L9.24625 25.6262C8.33625 25.5037 7.51375 24.69 7.37375 23.7625L7.11125 21.8462C7.02375 21.2337 7.28625 20.4375 7.72375 19.9912L11.565 16.15C10.9437 13.665 11.6612 11.04 13.49 9.22874C16.325 6.40249 20.9362 6.39374 23.78 9.22874C25.1537 10.6025 25.9062 12.4312 25.9062 14.3737C25.9062 16.3162 25.1537 18.145 23.78 19.5187C21.9425 21.3387 19.3262 22.0562 16.8587 21.4262L13.0087 25.2675C12.6412 25.6525 11.985 25.9062 11.4075 25.9062ZM18.6262 8.41499C17.095 8.41499 15.5725 8.99249 14.4087 10.1562C12.8337 11.7225 12.265 14.015 12.9212 16.15C12.9912 16.3862 12.93 16.6312 12.755 16.8062L8.6425 20.9187C8.49375 21.0675 8.37125 21.4525 8.3975 21.6537L8.66 23.57C8.7125 23.9025 9.07125 24.2787 9.40375 24.3225L11.3112 24.585C11.5212 24.62 11.9062 24.4975 12.055 24.3487L16.185 20.2275C16.36 20.0525 16.6137 20 16.8412 20.07C18.95 20.735 21.2512 20.1662 22.8262 18.5912C23.9462 17.4712 24.5675 15.9662 24.5675 14.3737C24.5675 12.7725 23.9462 11.2762 22.8262 10.1562C21.6887 9.00124 20.1575 8.41499 18.6262 8.41499Z" fill="#957BF1"/>
<path d="M14.0413 23.9725C13.875 23.9725 13.7088 23.9112 13.5775 23.78L11.565 21.7675C11.3113 21.5137 11.3113 21.0937 11.565 20.84C11.8188 20.5862 12.2388 20.5862 12.4925 20.84L14.505 22.8525C14.7588 23.1062 14.7588 23.5262 14.505 23.78C14.3738 23.9112 14.2075 23.9725 14.0413 23.9725Z" fill="#957BF1"/>
<path d="M18.6875 16.2812C17.6025 16.2812 16.7188 15.3975 16.7188 14.3125C16.7188 13.2275 17.6025 12.3438 18.6875 12.3438C19.7725 12.3438 20.6562 13.2275 20.6562 14.3125C20.6562 15.3975 19.7725 16.2812 18.6875 16.2812ZM18.6875 13.6562C18.3288 13.6562 18.0312 13.9538 18.0312 14.3125C18.0312 14.6712 18.3288 14.9688 18.6875 14.9688C19.0462 14.9688 19.3438 14.6712 19.3438 14.3125C19.3438 13.9538 19.0462 13.6562 18.6875 13.6562Z" fill="#957BF1"/>
</svg>
