<svg width="33" height="33" viewBox="0 0 33 33" fill="none" xmlns="http://www.w3.org/2000/svg">
<circle cx="16.5" cy="16.5" r="16.5" fill="#F8F7FF"/>
<path d="M21.2688 25.9062C20.28 25.9062 19.2388 25.67 18.1625 25.215C17.1125 24.7687 16.0538 24.1562 15.0213 23.4125C13.9975 22.66 13.0088 21.82 12.0725 20.9013C11.145 19.965 10.305 18.9763 9.56125 17.9613C8.80875 16.9113 8.205 15.8612 7.77625 14.8462C7.32125 13.7612 7.09375 12.7112 7.09375 11.7225C7.09375 11.04 7.21625 10.3925 7.4525 9.78875C7.6975 9.1675 8.09125 8.59 8.625 8.09125C9.29875 7.42625 10.0688 7.09375 10.8913 7.09375C11.2325 7.09375 11.5825 7.1725 11.88 7.3125C12.2213 7.47 12.51 7.70625 12.72 8.02125L14.75 10.8825C14.9338 11.1362 15.0738 11.3812 15.17 11.6262C15.2838 11.8887 15.345 12.1513 15.345 12.405C15.345 12.7375 15.2488 13.0613 15.065 13.3675C14.9338 13.6038 14.7325 13.8575 14.4788 14.1113L13.8838 14.7325C13.8925 14.7587 13.9013 14.7763 13.91 14.7938C14.015 14.9775 14.225 15.2925 14.6275 15.765C15.0563 16.255 15.4588 16.7012 15.8613 17.1125C16.3775 17.62 16.8063 18.0225 17.2088 18.355C17.7075 18.775 18.0313 18.985 18.2238 19.0812L18.2063 19.125L18.845 18.495C19.1163 18.2237 19.3788 18.0225 19.6325 17.8913C20.1138 17.5938 20.7263 17.5412 21.3388 17.795C21.5663 17.8912 21.8113 18.0225 22.0738 18.2062L24.9788 20.2712C25.3025 20.49 25.5388 20.77 25.6788 21.1025C25.81 21.435 25.8713 21.7413 25.8713 22.0475C25.8713 22.4675 25.775 22.8875 25.5913 23.2812C25.4075 23.675 25.18 24.0163 24.8913 24.3313C24.3925 24.8825 23.85 25.2762 23.22 25.53C22.6163 25.775 21.96 25.9062 21.2688 25.9062ZM10.8913 8.40625C10.41 8.40625 9.96375 8.61625 9.535 9.03625C9.1325 9.4125 8.8525 9.82375 8.6775 10.27C8.49375 10.725 8.40625 11.2062 8.40625 11.7225C8.40625 12.5362 8.59875 13.42 8.98375 14.33C9.3775 15.2575 9.92875 16.22 10.6288 17.1825C11.3288 18.145 12.125 19.0813 13 19.965C13.875 20.8313 14.82 21.6363 15.7913 22.345C16.7363 23.0363 17.7075 23.5962 18.67 23.9987C20.1663 24.6375 21.5663 24.7863 22.7213 24.305C23.1675 24.1213 23.5613 23.8413 23.92 23.4388C24.1213 23.22 24.2788 22.9838 24.41 22.7038C24.515 22.485 24.5675 22.2575 24.5675 22.03C24.5675 21.89 24.5413 21.75 24.4713 21.5925C24.445 21.54 24.3925 21.4438 24.2263 21.33L21.3213 19.265C21.1463 19.1425 20.9888 19.055 20.84 18.9938C20.6475 18.915 20.5688 18.8363 20.2713 19.02C20.0963 19.1075 19.9388 19.2387 19.7638 19.4137L19.0988 20.07C18.7575 20.4025 18.2325 20.4812 17.83 20.3325L17.5938 20.2275C17.235 20.035 16.815 19.7375 16.3513 19.3438C15.9313 18.985 15.4763 18.565 14.925 18.0225C14.4963 17.585 14.0675 17.1212 13.6213 16.605C13.21 16.1237 12.9125 15.7125 12.7288 15.3713L12.6238 15.1087C12.5713 14.9075 12.5538 14.7937 12.5538 14.6712C12.5538 14.3562 12.6675 14.0762 12.8863 13.8575L13.5425 13.175C13.7175 13 13.8488 12.8337 13.9363 12.685C14.0063 12.5712 14.0325 12.475 14.0325 12.3875C14.0325 12.3175 14.0063 12.2125 13.9625 12.1075C13.9013 11.9675 13.805 11.81 13.6825 11.6437L11.6525 8.77375C11.565 8.65125 11.46 8.56375 11.3288 8.5025C11.1888 8.44125 11.04 8.40625 10.8913 8.40625ZM18.2063 19.1338L18.0663 19.7287L18.3025 19.1162C18.2588 19.1075 18.2238 19.1163 18.2063 19.1338Z" fill="#957BF1"/>
</svg>
