<svg width="17" height="17" viewBox="0 0 17 17" fill="none" xmlns="http://www.w3.org/2000/svg">
<path d="M12.3604 16.1145C11.56 16.1145 10.7171 15.9233 9.84585 15.555C8.99585 15.1937 8.13877 14.6979 7.30294 14.0958C6.47419 13.4866 5.67377 12.8066 4.91585 12.0629C4.16502 11.305 3.48502 10.5045 2.88294 9.68288C2.27377 8.83288 1.78502 7.98288 1.43794 7.16121C1.0696 6.28288 0.885437 5.43288 0.885437 4.63246C0.885437 4.07996 0.984604 3.55579 1.17585 3.06704C1.37419 2.56413 1.69294 2.09663 2.12502 1.69288C2.67044 1.15454 3.29377 0.885376 3.9596 0.885376C4.23585 0.885376 4.51919 0.949126 4.76002 1.06246C5.03627 1.18996 5.27002 1.38121 5.44002 1.63621L7.08335 3.95246C7.2321 4.15788 7.34544 4.35621 7.42335 4.55454C7.51544 4.76704 7.56502 4.97954 7.56502 5.18496C7.56502 5.45413 7.4871 5.71621 7.33835 5.96413C7.2321 6.15538 7.06919 6.36079 6.86377 6.56621L6.3821 7.06913C6.38919 7.09038 6.39627 7.10454 6.40335 7.11871C6.48835 7.26746 6.65835 7.52246 6.98419 7.90496C7.33127 8.30163 7.6571 8.66288 7.98294 8.99579C8.40085 9.40663 8.74794 9.73246 9.07377 10.0016C9.47752 10.3416 9.7396 10.5116 9.89544 10.5895L9.88127 10.625L10.3984 10.115C10.6179 9.89538 10.8304 9.73246 11.0359 9.62621C11.4254 9.38538 11.9213 9.34288 12.4171 9.54829C12.6013 9.62621 12.7996 9.73246 13.0121 9.88121L15.3638 11.5529C15.6259 11.73 15.8171 11.9566 15.9304 12.2258C16.0367 12.495 16.0863 12.7429 16.0863 12.9908C16.0863 13.3308 16.0084 13.6708 15.8596 13.9895C15.7109 14.3083 15.5267 14.5845 15.2929 14.8395C14.8892 15.2858 14.45 15.6045 13.94 15.81C13.4513 16.0083 12.92 16.1145 12.3604 16.1145ZM3.9596 1.94788C3.57002 1.94788 3.20877 2.11788 2.86169 2.45788C2.53585 2.76246 2.30919 3.09538 2.16752 3.45663C2.01877 3.82496 1.94794 4.21454 1.94794 4.63246C1.94794 5.29121 2.10377 6.00663 2.41544 6.74329C2.73419 7.49413 3.18044 8.27329 3.7471 9.05246C4.31377 9.83163 4.95835 10.5895 5.66669 11.305C6.37502 12.0062 7.14002 12.6579 7.92627 13.2316C8.69127 13.7912 9.47752 14.2445 10.2567 14.5704C11.4679 15.0875 12.6013 15.2079 13.5363 14.8183C13.8975 14.6695 14.2163 14.4429 14.5067 14.117C14.6696 13.94 14.7971 13.7487 14.9034 13.522C14.9884 13.345 15.0309 13.1608 15.0309 12.9766C15.0309 12.8633 15.0096 12.75 14.9529 12.6225C14.9317 12.58 14.8892 12.502 14.7546 12.41L12.4029 10.7383C12.2613 10.6391 12.1338 10.5683 12.0134 10.5187C11.8575 10.455 11.7938 10.3912 11.5529 10.54C11.4113 10.6108 11.2838 10.717 11.1421 10.8587L10.6038 11.39C10.3275 11.6591 9.90252 11.7229 9.57669 11.6025L9.38544 11.5175C9.09502 11.3616 8.75502 11.1208 8.3796 10.802C8.0396 10.5116 7.67127 10.1716 7.22502 9.73246C6.87794 9.37829 6.53085 9.00288 6.1696 8.58496C5.83669 8.19538 5.59585 7.86246 5.4471 7.58621L5.3621 7.37371C5.3196 7.21079 5.30544 7.11871 5.30544 7.01954C5.30544 6.76454 5.39752 6.53788 5.5746 6.36079L6.10585 5.80829C6.24752 5.66663 6.35377 5.53204 6.4246 5.41163C6.48127 5.31954 6.50252 5.24163 6.50252 5.17079C6.50252 5.11413 6.48127 5.02913 6.44585 4.94413C6.39627 4.83079 6.31835 4.70329 6.21919 4.56871L4.57585 2.24538C4.50502 2.14621 4.42002 2.07538 4.31377 2.02579C4.20044 1.97621 4.08002 1.94788 3.9596 1.94788ZM9.88127 10.632L9.76794 11.1137L9.95919 10.6179C9.92377 10.6108 9.89544 10.6179 9.88127 10.632Z" fill="#A5B7C7"/>
</svg>
