<svg width="24" height="24" viewBox="0 0 24 24" fill="none" xmlns="http://www.w3.org/2000/svg">
<g clip-path="url(#clip0_225_8726)">
<path d="M21.7988 12.1111C21.7988 17.4614 17.4616 21.7986 12.1113 21.7986C6.76101 21.7986 2.42378 17.4614 2.42378 12.1111C2.42378 6.76081 6.76101 2.42358 12.1113 2.42358C17.4616 2.42358 21.7988 6.76081 21.7988 12.1111ZM10.9907 17.2405L18.1782 10.053C18.4223 9.80898 18.4223 9.41323 18.1782 9.16917L17.2944 8.2853C17.0503 8.0412 16.6546 8.0412 16.4105 8.2853L10.5488 14.1469L7.8121 11.4103C7.56804 11.1662 7.1723 11.1662 6.9282 11.4103L6.04433 12.2941C5.80027 12.5382 5.80027 12.9339 6.04433 13.178L10.1068 17.2405C10.3509 17.4846 10.7466 17.4846 10.9907 17.2405Z" fill="#359918"/>
</g>
<defs>
<clipPath id="clip0_225_8726">
<rect width="20" height="20" fill="white" transform="translate(2.11119 2.11108)"/>
</clipPath>
</defs>
</svg>
