<svg width="20" height="20" viewBox="0 0 20 20" fill="none" xmlns="http://www.w3.org/2000/svg">
<path d="M12.5 18.9583H7.50002C2.97502 18.9583 1.04169 17.025 1.04169 12.5V7.5C1.04169 2.975 2.97502 1.04167 7.50002 1.04167H12.5C17.025 1.04167 18.9584 2.975 18.9584 7.5V12.5C18.9584 17.025 17.025 18.9583 12.5 18.9583ZM7.50002 2.29167C3.65835 2.29167 2.29169 3.65833 2.29169 7.5V12.5C2.29169 16.3417 3.65835 17.7083 7.50002 17.7083H12.5C16.3417 17.7083 17.7084 16.3417 17.7084 12.5V7.5C17.7084 3.65833 16.3417 2.29167 12.5 2.29167H7.50002Z" fill="#957BF1"/>
<path d="M8.81664 12.9833C8.64997 12.9833 8.49164 12.9167 8.37497 12.8L6.01664 10.4417C5.77497 10.2 5.77497 9.8 6.01664 9.55833C6.2583 9.31667 6.6583 9.31667 6.89997 9.55833L8.81664 11.475L13.1 7.19167C13.3416 6.95 13.7416 6.95 13.9833 7.19167C14.225 7.43333 14.225 7.83333 13.9833 8.075L9.2583 12.8C9.14164 12.9167 8.9833 12.9833 8.81664 12.9833Z" fill="#957BF1"/>
</svg>
