<svg width="24" height="24" viewBox="0 0 24 24" fill="none" xmlns="http://www.w3.org/2000/svg">
<g clip-path="url(#clip0_225_8735)">
<path d="M22.9844 19.2938C23.6609 20.4664 22.8118 21.9322 21.4606 21.9322H3.87215C2.51836 21.9322 1.67311 20.4641 2.3483 19.2938L11.1426 4.04583C11.8195 2.87266 13.5147 2.87478 14.1903 4.04583L22.9844 19.2938ZM12.6665 16.1413C11.7353 16.1413 10.9805 16.8961 10.9805 17.8272C10.9805 18.7584 11.7353 19.5132 12.6665 19.5132C13.5976 19.5132 14.3524 18.7584 14.3524 17.8272C14.3524 16.8961 13.5976 16.1413 12.6665 16.1413ZM11.0658 10.0812L11.3377 15.0657C11.3504 15.299 11.5433 15.4816 11.7768 15.4816H13.5561C13.7897 15.4816 13.9825 15.299 13.9953 15.0657L14.2671 10.0812C14.2809 9.82921 14.0803 9.61737 13.828 9.61737H11.5049C11.2526 9.61737 11.0521 9.82921 11.0658 10.0812Z" fill="#A98B1E"/>
</g>
<defs>
<clipPath id="clip0_225_8735">
<rect width="21.1111" height="18.7654" fill="white" transform="translate(2.11119 3.16675)"/>
</clipPath>
</defs>
</svg>
